<svg style="height: 512px; width: 512px;" xmlns="http://www.w3.org/2000/svg" viewBox="0 0 512 512"><rect fill="#4a90e2" fill-opacity="1" height="512" width="512" rx="32" ry="32"></rect><g class="" style="" transform="translate(0,0)"><g><path d="M185.9010009765625 21.66699981689453C273.6659851074219 103.13400268554688 325.9010009765625 190.875 363.18798828125 289.15301513671875C275.489990234375 184.91299438476562 242.31399536132812 163.72300720214844 116.88999938964844 109.33000183105469C208.4530029296875 181.5399932861328 226.10800170898438 200.3470001220703 279.72900390625 286.0450134277344C209.68600463867188 233.82400512695312 113.35199737548828 182.9929962158203 20.76300048828125 155.41000366210938L20.76300048828125 240.81100463867188C116.20899963378906 265.35101318359375 265.37298583984375 337.9110107421875 332.6050109863281 416.0260009765625C331.9800109863281 390.45098876953125 328.6199951171875 364.8789978027344 318.0889892578125 339.3039855957031L426.95001220703125 451.2760009765625C420.4049987792969 417.27099609375 406.44000244140625 384.09100341796875 384.9599914550781 351.7460021972656L499.0060119628906 468.3819885253906C461.76300048828125 292.8370056152344 343.0660095214844 104.33999633789062 185.9029998779297 21.66699981689453Z" class="selected" fill="#fff8e7" fill-opacity="1"></path></g></g></svg>